   <svg width="119" height="26" viewBox="0 0 119 26" fill="none" xmlns="http://www.w3.org/2000/svg">
<path d="M11.9989 26C9.49118 26 7.34333 25.4569 5.55539 24.3707C3.76745 23.2729 2.39166 21.7476 1.42803 19.7947C0.47601 17.8418 0 15.5769 0 13C0 10.4231 0.47601 8.15822 1.42803 6.20533C2.39166 4.25244 3.76745 2.73289 5.55539 1.64667C7.34333 0.54889 9.49118 0 11.9989 0C14.8898 0 17.2989 0.722222 19.2262 2.16667C21.1534 3.59956 22.506 5.53511 23.2839 7.97333L19.052 9.13467C18.5644 7.50533 17.7343 6.23422 16.5617 5.32133C15.3891 4.39689 13.8681 3.93467 11.9989 3.93467C10.3155 3.93467 8.91068 4.31022 7.78451 5.06133C6.66995 5.81244 5.82822 6.86978 5.25933 8.23333C4.70205 9.58533 4.41761 11.1742 4.406 13C4.406 14.8258 4.68464 16.4204 5.24192 17.784C5.81081 19.136 6.65834 20.1876 7.78451 20.9387C8.91068 21.6898 10.3155 22.0653 11.9989 22.0653C13.8681 22.0653 15.3891 21.6031 16.5617 20.6787C17.7343 19.7542 18.5644 18.4831 19.052 16.8653L23.2839 18.0267C22.506 20.4649 21.1534 22.4062 19.2262 23.8507C17.2989 25.2836 14.8898 26 11.9989 26Z" fill="black"/>
<path d="M27.4558 3.91733V0.0866665H31.6529V3.91733H27.4558ZM27.4558 25.48V6.76H31.6529V25.48H27.4558Z" fill="black"/>
<path d="M47.8932 25.48C46.6509 25.7111 45.4318 25.8093 44.236 25.7747C43.0518 25.7516 41.9895 25.5378 41.0491 25.1333C40.1087 24.7173 39.3946 24.0644 38.907 23.1747C38.4775 22.3658 38.2511 21.5396 38.2278 20.696C38.2046 19.8524 38.193 18.8991 38.193 17.836V1.56H42.3726V17.5933C42.3726 18.3444 42.3784 19.0031 42.39 19.5693C42.4132 20.1356 42.5352 20.5978 42.7557 20.956C43.1737 21.6493 43.8413 22.0364 44.7585 22.1173C45.6757 22.1982 46.7206 22.152 47.8932 21.9787V25.48ZM34.7797 10.036V6.76H47.8932V10.036H34.7797Z" fill="black"/>
<path d="M57.1969 26C55.8385 26 54.6891 25.7458 53.7487 25.2373C52.8083 24.7173 52.0943 24.0298 51.6066 23.1747C51.1306 22.3196 50.8926 21.3778 50.8926 20.3493C50.8926 19.448 51.0436 18.6391 51.3454 17.9227C51.6473 17.1947 52.1117 16.5707 52.7386 16.0507C53.3656 15.5191 54.1783 15.0858 55.1767 14.7507C55.9314 14.508 56.8137 14.2884 57.8238 14.092C58.8455 13.8956 59.9484 13.7164 61.1327 13.5547C62.3285 13.3813 63.5766 13.1964 64.8769 13L63.3792 13.8493C63.3908 12.5551 63.1006 11.6018 62.5084 10.9893C61.9163 10.3769 60.9179 10.0707 59.5131 10.0707C58.6655 10.0707 57.847 10.2671 57.0575 10.66C56.2681 11.0529 55.7166 11.7289 55.4031 12.688L51.5718 11.492C52.0362 9.90889 52.9186 8.63778 54.2189 7.67867C55.5308 6.71956 57.2955 6.24 59.5131 6.24C61.1849 6.24 62.6536 6.51156 63.9191 7.05467C65.1962 7.59778 66.1424 8.48756 66.7577 9.724C67.0944 10.3827 67.2976 11.0587 67.3672 11.752C67.4369 12.4338 67.4717 13.1791 67.4717 13.988V25.48H63.7972V21.424L64.4067 22.0827C63.5592 23.4347 62.5665 24.4284 61.4287 25.064C60.3025 25.688 58.8919 26 57.1969 26ZM58.0328 22.672C58.9848 22.672 59.7975 22.5044 60.4709 22.1693C61.1443 21.8342 61.6783 21.424 62.0731 20.9387C62.4794 20.4533 62.7523 19.9969 62.8916 19.5693C63.1122 19.0378 63.2341 18.4311 63.2573 17.7493C63.2921 17.056 63.3095 16.4956 63.3095 16.068L64.5982 16.4493C63.3328 16.6458 62.2472 16.8191 61.3416 16.9693C60.4361 17.1196 59.6582 17.264 59.008 17.4027C58.3579 17.5298 57.7832 17.6742 57.2839 17.836C56.7963 18.0093 56.3842 18.2116 56.0475 18.4427C55.7108 18.6738 55.4496 18.9396 55.2638 19.24C55.0896 19.5404 55.0026 19.8929 55.0026 20.2973C55.0026 20.7596 55.1187 21.1698 55.3509 21.528C55.5831 21.8747 55.9198 22.152 56.3609 22.36C56.8137 22.568 57.371 22.672 58.0328 22.672Z" fill="black"/>
<path d="M79.5463 26C77.8164 26 76.3071 25.5667 75.0184 24.7C73.7297 23.8333 72.7312 22.6547 72.023 21.164C71.3148 19.6733 70.9607 17.992 70.9607 16.12C70.9607 14.2249 71.3148 12.5378 72.023 11.0587C72.7428 9.568 73.7587 8.39511 75.0706 7.54C76.3826 6.67334 77.9267 6.24 79.703 6.24C81.491 6.24 82.9887 6.67334 84.1961 7.54C85.4152 8.39511 86.3382 9.568 86.9651 11.0587C87.592 12.5493 87.9055 14.2364 87.9055 16.12C87.9055 17.9804 87.592 19.6618 86.9651 21.164C86.3382 22.6547 85.4035 23.8333 84.1613 24.7C82.919 25.5667 81.3807 26 79.5463 26ZM80.1907 22.256C81.3168 22.256 82.2224 22.0018 82.9074 21.4933C83.604 20.9733 84.109 20.2511 84.4225 19.3267C84.7476 18.4022 84.9101 17.3333 84.9101 16.12C84.9101 14.8951 84.7476 13.8262 84.4225 12.9133C84.109 11.9889 83.6156 11.2724 82.9422 10.764C82.2689 10.244 81.3981 9.984 80.33 9.984C79.2038 9.984 78.275 10.2613 77.5436 10.816C76.8121 11.3591 76.2723 12.0987 75.924 13.0347C75.5757 13.9591 75.4015 14.9876 75.4015 16.12C75.4015 17.264 75.5699 18.304 75.9066 19.24C76.2549 20.1644 76.7831 20.8982 77.4913 21.4413C78.1995 21.9844 79.0993 22.256 80.1907 22.256ZM84.9101 25.48V12.3413H84.3877V0.52H88.6195V25.48H84.9101Z" fill="black"/>
<path d="M102.053 26C100.149 26 98.4771 25.5898 97.0375 24.7693C95.5979 23.9489 94.4717 22.8107 93.659 21.3547C92.8579 19.8987 92.4574 18.2231 92.4574 16.328C92.4574 14.2827 92.8521 12.5089 93.6416 11.0067C94.4311 9.49289 95.5282 8.32 96.933 7.488C98.3378 6.656 99.9632 6.24 101.809 6.24C103.76 6.24 105.414 6.69644 106.772 7.60933C108.142 8.51067 109.158 9.78756 109.82 11.44C110.482 13.0924 110.731 15.0396 110.569 17.2813H106.407V15.756C106.395 13.7222 106.035 12.2373 105.327 11.3013C104.619 10.3653 103.504 9.89733 101.983 9.89733C100.265 9.89733 98.988 10.4289 98.1521 11.492C97.3161 12.5436 96.8982 14.0862 96.8982 16.12C96.8982 18.0151 97.3161 19.4827 98.1521 20.5227C98.988 21.5627 100.207 22.0827 101.809 22.0827C102.842 22.0827 103.731 21.8573 104.474 21.4067C105.228 20.9444 105.809 20.28 106.215 19.4133L110.36 20.6613C109.64 22.3484 108.526 23.66 107.016 24.596C105.519 25.532 103.864 26 102.053 26ZM95.5746 17.2813V14.1267H108.514V17.2813H95.5746Z" fill="black"/>
<path d="M114.803 25.48V0H119V25.48H114.803Z" fill="black"/>
<rect x="93" y="1" width="17" height="3" rx="1.5" fill="black"/>
</svg>